<svg xmlns="http://www.w3.org/2000/svg" fill="none" viewBox="3.84 0 1918.08 339.6928406466513" style="max-height: 500px" width="1918.08" height="339.6928406466513">
<g clip-path="url(#clip0_117_1928)" opacity="0.1">
<path fill="#5827B7" d="M1956.14 43.2407C1864.23 11.8792 1758.23 -52.7444 1679.71 82.6801C1640.46 150.155 1610.43 239.012 1569.33 301.735C1517.37 381.564 1449.01 411.025 1385.5 388.217C1318.07 363.983 1273.73 246.14 1204.91 237.112C1144.87 229.509 1088.06 289.381 1036.1 352.104C969.589 431.933 899.385 510.336 819.943 506.535C677.687 499.408 576.307 220.005 443.519 114.992C353.916 44.191 251.381 57.0207 162.24 130.197C72.8682 203.374 -3.57127 332.622 -65 484.677C53.0078 380.139 183.255 284.629 309.577 392.018C391.559 461.869 447.907 597.768 505.872 729.392C561.989 856.738 641.43 939.894 724.567 954.624C797.312 967.929 871.904 928.965 933.563 848.66C1045.8 702.782 1135.63 405.798 1289.43 506.06C1327.08 530.769 1359.87 578.761 1394.51 617.251C1561.01 804.469 1764.01 828.703 1910.88 544.074C1914.34 537.421 1907.88 517.464 1909.49 508.436C1919.66 456.642 1927.05 401.997 1932.82 347.352C1939.29 286.53 1942.98 223.807 1946.21 162.034C1947.37 136.85 1948.29 107.864 1955.91 86.4815C1959.61 76.0277 1966.54 69.8504 1969.77 59.8718C1971.15 56.5456 1960.3 44.6662 1956.14 43.2407Z" opacity="0.51"/>
</g>
<defs>
<clipPath id="clip0_117_1928">
<rect transform="translate(-65)" fill="white" height="957" width="2035"/>
</clipPath>
</defs>
</svg>